<?xml version="1.0" encoding="UTF-8" standalone="no"?>
<!-- Generator: Adobe Illustrator 21.1.0, SVG Export Plug-In . SVG Version: 6.00 Build 0)  -->

<svg
   xmlns:i="&amp;ns_ai;"
   xmlns:dc="http://purl.org/dc/elements/1.1/"
   xmlns:cc="http://creativecommons.org/ns#"
   xmlns:rdf="http://www.w3.org/1999/02/22-rdf-syntax-ns#"
   xmlns:svg="http://www.w3.org/2000/svg"
   xmlns="http://www.w3.org/2000/svg"
   xmlns:sodipodi="http://sodipodi.sourceforge.net/DTD/sodipodi-0.dtd"
   xmlns:inkscape="http://www.inkscape.org/namespaces/inkscape"
   version="1.1"
   id="Connectivity_Inactive"
   x="0px"
   y="0px"
   viewBox="0 0 300 300"
   style="enable-background:new 0 0 300 300;"
   xml:space="preserve"
   inkscape:version="0.91 r13725"
   sodipodi:docname="blank_inactive.svg"><metadata
     id="metadata24"><rdf:RDF><cc:Work
         rdf:about=""><dc:format>image/svg+xml</dc:format><dc:type
           rdf:resource="http://purl.org/dc/dcmitype/StillImage" /></cc:Work></rdf:RDF></metadata><defs
     id="defs22" /><sodipodi:namedview
     pagecolor="#ffffff"
     bordercolor="#666666"
     borderopacity="1"
     objecttolerance="10"
     gridtolerance="10"
     guidetolerance="10"
     inkscape:pageopacity="0"
     inkscape:pageshadow="2"
     inkscape:window-width="1794"
     inkscape:window-height="836"
     id="namedview20"
     showgrid="false"
     inkscape:zoom="0.78666667"
     inkscape:cx="-241.52542"
     inkscape:cy="58.474576"
     inkscape:window-x="0"
     inkscape:window-y="27"
     inkscape:window-maximized="0"
     inkscape:current-layer="Connectivity_Inactive" /><style
     type="text/css"
     id="style3">
    .st0{fill:#FFFFFF;}
    .st1{font-family:'Roboto-Regular';}
    .st2{font-size:25px;}
    .st3{letter-spacing:6;}
    .st4{fill:url(#SVGID_1_);}
  </style><switch
     id="switch5"
     transform="matrix(1.3314132,0,0,1.3314132,5.608242,5.2107165)"><g
       i:extraneous="self"
       id="g7"><g
         id="g9"><g
           id="g11"><linearGradient
             id="SVGID_1_"
             gradientUnits="userSpaceOnUse"
             x1="-47.346401"
             y1="263.00369"
             x2="269.0914"
             y2="-40.3484"
             gradientTransform="matrix(1,0.00546456,-0.00546456,1,-2.3177,-2.7461)"><stop
               offset="0"
               style="stop-color:#00ADDC"
               id="stop14" /><stop
               offset="1"
               style="stop-color:#6BFBFF"
               id="stop16" /></linearGradient><path
             class="st4"
             d="m 108.5,213.9 c -0.2,0 -0.4,0 -0.6,0 C 49.9,213.5 3,166.1 3.3,108.1 3.6,50.4 50.7,3.6 108.4,3.6 c 0.2,0 0.4,0 0.6,0 58,0.3 104.9,47.7 104.6,105.7 l 0,0 c -0.3,57.8 -47.4,104.6 -105.1,104.6 z M 108.4,7.2 C 52.7,7.2 7.3,52.4 7,108.2 c -0.3,55.9 45,101.7 100.9,102 0.2,0 0.4,0 0.6,0 C 164.2,210.2 209.7,165 210,109.3 210.3,53.4 165,7.6 109.1,7.3 108.8,7.2 108.6,7.2 108.4,7.2 Z"
             id="path18"
             style="fill:url(#SVGID_1_)"
             inkscape:connector-curvature="0" /></g></g></g></switch></svg>