<?xml version="1.0" encoding="UTF-8" standalone="no"?>
<!-- Generator: Adobe Illustrator 21.1.0, SVG Export Plug-In . SVG Version: 6.00 Build 0)  -->

<svg
   xmlns:i="&amp;ns_ai;"
   xmlns:dc="http://purl.org/dc/elements/1.1/"
   xmlns:cc="http://creativecommons.org/ns#"
   xmlns:rdf="http://www.w3.org/1999/02/22-rdf-syntax-ns#"
   xmlns:svg="http://www.w3.org/2000/svg"
   xmlns="http://www.w3.org/2000/svg"
   xmlns:sodipodi="http://sodipodi.sourceforge.net/DTD/sodipodi-0.dtd"
   xmlns:inkscape="http://www.inkscape.org/namespaces/inkscape"
   version="1.1"
   id="Connectivity_Inactive"
   x="0px"
   y="0px"
   viewBox="0 0 300 300"
   style="enable-background:new 0 0 300 300;"
   xml:space="preserve"
   inkscape:version="0.91 r13725"
   sodipodi:docname="connectivity_inactive.svg"><metadata
     id="metadata4244"><rdf:RDF><cc:Work
         rdf:about=""><dc:format>image/svg+xml</dc:format><dc:type
           rdf:resource="http://purl.org/dc/dcmitype/StillImage" /></cc:Work></rdf:RDF></metadata><defs
     id="defs4242" /><sodipodi:namedview
     pagecolor="#ffffff"
     bordercolor="#666666"
     borderopacity="1"
     objecttolerance="10"
     gridtolerance="10"
     guidetolerance="10"
     inkscape:pageopacity="0"
     inkscape:pageshadow="2"
     inkscape:window-width="1337"
     inkscape:window-height="709"
     id="namedview4240"
     showgrid="false"
     inkscape:zoom="0.5"
     inkscape:cx="160"
     inkscape:cy="166.35"
     inkscape:window-x="0"
     inkscape:window-y="27"
     inkscape:window-maximized="0"
     inkscape:current-layer="Connectivity_Inactive" /><style
     type="text/css"
     id="style4184">
	.st0{fill:#FFFFFF;}
	.st1{font-family:'Roboto-Regular';}
	.st2{font-size:25px;}
	.st3{letter-spacing:6;}
	.st4{fill:url(#SVGID_1_);}
	.st5{fill:url(#SVGID_2_);}
	.st6{fill:url(#SVGID_3_);}
	.st7{fill:url(#SVGID_4_);}
	.st8{fill:url(#SVGID_5_);}
	.st9{fill:url(#SVGID_6_);}
</style><switch
     id="switch4186"
     transform="matrix(1.3307804,0,0,1.3314313,-62.924861,-27.945794)"><g
       i:extraneous="self"
       id="g4188"><g
         id="g4190"><g
           id="g4192"><linearGradient
             id="SVGID_1_"
             gradientUnits="userSpaceOnUse"
             x1="162.7637"
             y1="227.3414"
             x2="162.7637"
             y2="-19.1675"
             gradientTransform="matrix(1,0.00546456,-0.00546456,1,-2.0192,-3.0212)"><stop
               offset="0"
               style="stop-color:#00ADDC"
               id="stop4195" /><stop
               offset="1"
               style="stop-color:#6BFBFF"
               id="stop4197" /></linearGradient><path
             class="st4"
             d="m 160,238.8 c -0.2,0 -0.4,0 -0.6,0 C 101.4,238.5 54.5,191.1 54.8,133.1 55.2,75.3 102.3,28.5 160,28.5 c 0.2,0 0.4,0 0.6,0 58,0.3 104.9,47.7 104.6,105.7 l 0,0 C 264.8,192 217.7,238.8 160,238.8 Z m 0,-206.6 c -55.7,0 -101.2,45.2 -101.5,100.9 -0.3,55.9 45,101.7 100.9,102 0.2,0 0.4,0 0.6,0 55.7,0 101.2,-45.2 101.5,-100.9 0.3,-55.9 -45,-101.7 -100.9,-102 -0.2,0 -0.4,0 -0.6,0 z"
             id="path4199"
             style="fill:url(#SVGID_1_)"
             inkscape:connector-curvature="0" /></g><g
           id="g4201"><linearGradient
             id="SVGID_2_"
             gradientUnits="userSpaceOnUse"
             x1="159.01421"
             y1="225.6395"
             x2="159.01421"
             y2="-20.869499"><stop
               offset="0"
               style="stop-color:#00ADDC"
               id="stop4204" /><stop
               offset="1"
               style="stop-color:#6BFBFF"
               id="stop4206" /></linearGradient><path
             class="st5"
             d="m 159,115.8 c 5.3,0 9.6,4.3 9.6,9.6 0,5.3 -4.3,9.6 -9.6,9.6 -5.3,0 -9.6,-4.3 -9.6,-9.6 0,-5.3 4.3,-9.6 9.6,-9.6 z"
             id="path4208"
             style="fill:url(#SVGID_2_)"
             inkscape:connector-curvature="0" /><g
             id="g4210"><linearGradient
               id="SVGID_3_"
               gradientUnits="userSpaceOnUse"
               x1="159.0143"
               y1="225.6395"
               x2="159.0143"
               y2="-20.869499"><stop
                 offset="0"
                 style="stop-color:#00ADDC"
                 id="stop4213" /><stop
                 offset="1"
                 style="stop-color:#6BFBFF"
                 id="stop4215" /></linearGradient><path
               class="st6"
               d="m 159,73.3 c -28.7,0 -52.1,23.4 -52.1,52.1 0,23.4 15.5,43.2 36.8,49.8 l 0,-3.2 C 124.1,165.5 110,147.1 110,125.4 c 0,-27.1 22,-49.1 49.1,-49.1 27.1,0 49.1,22 49.1,49.1 0,21.8 -14.2,40.2 -33.9,46.6 l 0,3.2 c 21.4,-6.5 36.9,-26.4 36.9,-49.9 -0.1,-28.6 -23.4,-52 -52.2,-52 z"
               id="path4217"
               style="fill:url(#SVGID_3_)"
               inkscape:connector-curvature="0" /><linearGradient
               id="SVGID_4_"
               gradientUnits="userSpaceOnUse"
               x1="159.0143"
               y1="225.6395"
               x2="159.0143"
               y2="-20.869499"><stop
                 offset="0"
                 style="stop-color:#00ADDC"
                 id="stop4220" /><stop
                 offset="1"
                 style="stop-color:#6BFBFF"
                 id="stop4222" /></linearGradient><path
               class="st7"
               d="m 124.7,125.4 c 0,-18.9 15.4,-34.3 34.3,-34.3 18.9,0 34.3,15.4 34.3,34.3 0,13.5 -7.8,25.1 -19.1,30.7 l 0,3.4 c 13,-5.8 22.2,-18.9 22.2,-34.1 0,-20.6 -16.8,-37.3 -37.3,-37.3 -20.6,0 -37.3,16.8 -37.3,37.3 0,15.1 9,28.2 22,34 l 0,-3.4 c -11.4,-5.6 -19.1,-17.2 -19.1,-30.6 z"
               id="path4224"
               style="fill:url(#SVGID_4_)"
               inkscape:connector-curvature="0" /><linearGradient
               id="SVGID_5_"
               gradientUnits="userSpaceOnUse"
               x1="159.01421"
               y1="225.6395"
               x2="159.01421"
               y2="-20.869499"><stop
                 offset="0"
                 style="stop-color:#00ADDC"
                 id="stop4227" /><stop
                 offset="1"
                 style="stop-color:#6BFBFF"
                 id="stop4229" /></linearGradient><circle
               class="st8"
               cx="159"
               cy="125.4"
               r="9.6000004"
               id="circle4231"
               style="fill:url(#SVGID_5_)" /><linearGradient
               id="SVGID_6_"
               gradientUnits="userSpaceOnUse"
               x1="162.4019"
               y1="225.6395"
               x2="162.4019"
               y2="-20.869499"><stop
                 offset="0"
                 style="stop-color:#00ADDC"
                 id="stop4234" /><stop
                 offset="1"
                 style="stop-color:#6BFBFF"
                 id="stop4236" /></linearGradient><path
               class="st9"
               d="m 162,199.7 0,-9.5 0,-12.7 0,-3.1 0,-11.7 0,-3.1 0,-11.4 0,-6 -5.8,0 0,6 0,11.4 0,3.1 0,11.7 0,3.1 0,12.7 0,9.5 c 0,5 4,9 8.9,9 l 3.5,0 0,-5.8 -3.5,0 c -1.7,0 -3.1,-1.5 -3.1,-3.2 z"
               id="path4238"
               style="fill:url(#SVGID_6_)"
               inkscape:connector-curvature="0" /></g></g></g></g></switch></svg>