<?xml version="1.0" encoding="UTF-8" standalone="no"?>
<!-- Generator: Adobe Illustrator 21.1.0, SVG Export Plug-In . SVG Version: 6.00 Build 0)  -->

<svg
   xmlns:i="&amp;ns_ai;"
   xmlns:dc="http://purl.org/dc/elements/1.1/"
   xmlns:cc="http://creativecommons.org/ns#"
   xmlns:rdf="http://www.w3.org/1999/02/22-rdf-syntax-ns#"
   xmlns:svg="http://www.w3.org/2000/svg"
   xmlns="http://www.w3.org/2000/svg"
   xmlns:sodipodi="http://sodipodi.sourceforge.net/DTD/sodipodi-0.dtd"
   xmlns:inkscape="http://www.inkscape.org/namespaces/inkscape"
   version="1.1"
   id="Connectivity_Active"
   x="0px"
   y="0px"
   viewBox="0 0 300 300"
   style="enable-background:new 0 0 300 300;"
   xml:space="preserve"
   inkscape:version="0.91 r13725"
   sodipodi:docname="connectivity_active.svg"><metadata
     id="metadata93"><rdf:RDF><cc:Work
         rdf:about=""><dc:format>image/svg+xml</dc:format><dc:type
           rdf:resource="http://purl.org/dc/dcmitype/StillImage" /><dc:title></dc:title></cc:Work></rdf:RDF></metadata><defs
     id="defs91" /><sodipodi:namedview
     pagecolor="#ffffff"
     bordercolor="#666666"
     borderopacity="1"
     objecttolerance="10"
     gridtolerance="10"
     guidetolerance="10"
     inkscape:pageopacity="0"
     inkscape:pageshadow="2"
     inkscape:window-width="1243"
     inkscape:window-height="824"
     id="namedview89"
     showgrid="false"
     inkscape:zoom="0.78666667"
     inkscape:cx="289.2517"
     inkscape:cy="150"
     inkscape:window-x="0"
     inkscape:window-y="27"
     inkscape:window-maximized="0"
     inkscape:current-layer="Connectivity_Active" /><style
     type="text/css"
     id="style3">
	.st0{fill:url(#SVGID_1_);}
	.st1{opacity:0.4;fill:url(#SVGID_2_);}
	.st2{fill:#FFFFFF;}
	.st3{font-family:'Roboto-Regular';}
	.st4{font-size:25px;}
	.st5{letter-spacing:6;}
	.st6{fill:url(#SVGID_3_);}
	.st7{fill:url(#SVGID_4_);}
	.st8{fill:url(#SVGID_5_);}
	.st9{fill:url(#SVGID_6_);}
	.st10{fill:url(#SVGID_7_);}
	.st11{fill:url(#SVGID_8_);}
</style><switch
     id="switch5"
     transform="matrix(1.3307804,0,0,1.3307804,-62.924861,-27.79036)"><g
       i:extraneous="self"
       id="g7"><linearGradient
         id="SVGID_1_"
         gradientUnits="userSpaceOnUse"
         x1="116.0821"
         y1="254.39191"
         x2="256.53561"
         y2="-133.31841"><stop
           offset="0"
           style="stop-color:#0DF9FF"
           id="stop10" /><stop
           offset="9.208472e-02"
           style="stop-color:#0DF9FF;stop-opacity:0.853"
           id="stop12" /><stop
           offset="0.6264"
           style="stop-color:#0DF9FF;stop-opacity:0"
           id="stop14" /></linearGradient><circle
         class="st0"
         cx="159.8"
         cy="133.60001"
         r="101.9"
         id="circle16"
         style="fill:url(#SVGID_1_)" /><linearGradient
         id="SVGID_2_"
         gradientUnits="userSpaceOnUse"
         x1="-55.796902"
         y1="435.51099"
         x2="216.9304"
         y2="53.692902"><stop
           offset="0.2978"
           style="stop-color:#FFFFFF;stop-opacity:0"
           id="stop19" /><stop
           offset="0.3685"
           style="stop-color:#FAFAFA;stop-opacity:0.1007"
           id="stop21" /><stop
           offset="0.4554"
           style="stop-color:#EBEBEB;stop-opacity:0.2245"
           id="stop23" /><stop
           offset="0.5508"
           style="stop-color:#D2D2D2;stop-opacity:0.3603"
           id="stop25" /><stop
           offset="0.6523"
           style="stop-color:#AFAFAF;stop-opacity:0.5048"
           id="stop27" /><stop
           offset="0.7585"
           style="stop-color:#828282;stop-opacity:0.6562"
           id="stop29" /><stop
           offset="0.8689"
           style="stop-color:#4B4B4B;stop-opacity:0.8133"
           id="stop31" /><stop
           offset="0.9806"
           style="stop-color:#0C0C0C;stop-opacity:0.9724"
           id="stop33" /><stop
           offset="1"
           style="stop-color:#000000"
           id="stop35" /></linearGradient><circle
         class="st1"
         cx="159.8"
         cy="133.60001"
         r="101.9"
         id="circle37"
         style="opacity:0.4;fill:url(#SVGID_2_)" /><g
         id="g39"><g
           id="g41"><linearGradient
             id="SVGID_3_"
             gradientUnits="userSpaceOnUse"
             x1="162.7637"
             y1="227.3414"
             x2="162.7637"
             y2="-19.1675"
             gradientTransform="matrix(1,0.00546456,-0.00546456,1,-2.0192,-3.0212)"><stop
               offset="0"
               style="stop-color:#00ADDC"
               id="stop44" /><stop
               offset="1"
               style="stop-color:#6BFBFF"
               id="stop46" /></linearGradient><path
             class="st6"
             d="m 160,238.8 c -0.2,0 -0.4,0 -0.6,0 C 101.4,238.5 54.5,191.1 54.8,133.1 55.2,75.3 102.3,28.5 160,28.5 c 0.2,0 0.4,0 0.6,0 58,0.3 104.9,47.7 104.6,105.7 l 0,0 C 264.8,192 217.7,238.8 160,238.8 Z m 0,-206.6 c -55.7,0 -101.2,45.2 -101.5,100.9 -0.3,55.9 45,101.7 100.9,102 0.2,0 0.4,0 0.6,0 55.7,0 101.2,-45.2 101.5,-100.9 0.3,-55.9 -45,-101.7 -100.9,-102 -0.2,0 -0.4,0 -0.6,0 z"
             id="path48"
             style="fill:url(#SVGID_3_)"
             inkscape:connector-curvature="0" /></g><g
           id="g50"><linearGradient
             id="SVGID_4_"
             gradientUnits="userSpaceOnUse"
             x1="159.01421"
             y1="225.6395"
             x2="159.01421"
             y2="-20.869499"><stop
               offset="0"
               style="stop-color:#00ADDC"
               id="stop53" /><stop
               offset="1"
               style="stop-color:#6BFBFF"
               id="stop55" /></linearGradient><path
             class="st7"
             d="m 159,115.8 c 5.3,0 9.6,4.3 9.6,9.6 0,5.3 -4.3,9.6 -9.6,9.6 -5.3,0 -9.6,-4.3 -9.6,-9.6 0,-5.3 4.3,-9.6 9.6,-9.6 z"
             id="path57"
             style="fill:url(#SVGID_4_)"
             inkscape:connector-curvature="0" /><g
             id="g59"><linearGradient
               id="SVGID_5_"
               gradientUnits="userSpaceOnUse"
               x1="159.0143"
               y1="225.6395"
               x2="159.0143"
               y2="-20.869499"><stop
                 offset="0"
                 style="stop-color:#00ADDC"
                 id="stop62" /><stop
                 offset="1"
                 style="stop-color:#6BFBFF"
                 id="stop64" /></linearGradient><path
               class="st8"
               d="m 159,73.3 c -28.7,0 -52.1,23.4 -52.1,52.1 0,23.4 15.5,43.2 36.8,49.8 l 0,-3.2 C 124.1,165.5 110,147.1 110,125.4 c 0,-27.1 22,-49.1 49.1,-49.1 27.1,0 49.1,22 49.1,49.1 0,21.8 -14.2,40.2 -33.9,46.6 l 0,3.2 c 21.4,-6.5 36.9,-26.4 36.9,-49.9 -0.1,-28.6 -23.4,-52 -52.2,-52 z"
               id="path66"
               style="fill:url(#SVGID_5_)"
               inkscape:connector-curvature="0" /><linearGradient
               id="SVGID_6_"
               gradientUnits="userSpaceOnUse"
               x1="159.0143"
               y1="225.6395"
               x2="159.0143"
               y2="-20.869499"><stop
                 offset="0"
                 style="stop-color:#00ADDC"
                 id="stop69" /><stop
                 offset="1"
                 style="stop-color:#6BFBFF"
                 id="stop71" /></linearGradient><path
               class="st9"
               d="m 124.7,125.4 c 0,-18.9 15.4,-34.3 34.3,-34.3 18.9,0 34.3,15.4 34.3,34.3 0,13.5 -7.8,25.1 -19.1,30.7 l 0,3.4 c 13,-5.8 22.2,-18.9 22.2,-34.1 0,-20.6 -16.8,-37.3 -37.3,-37.3 -20.6,0 -37.3,16.8 -37.3,37.3 0,15.1 9,28.2 22,34 l 0,-3.4 c -11.4,-5.6 -19.1,-17.2 -19.1,-30.6 z"
               id="path73"
               style="fill:url(#SVGID_6_)"
               inkscape:connector-curvature="0" /><linearGradient
               id="SVGID_7_"
               gradientUnits="userSpaceOnUse"
               x1="159.01421"
               y1="225.6395"
               x2="159.01421"
               y2="-20.869499"><stop
                 offset="0"
                 style="stop-color:#00ADDC"
                 id="stop76" /><stop
                 offset="1"
                 style="stop-color:#6BFBFF"
                 id="stop78" /></linearGradient><circle
               class="st10"
               cx="159"
               cy="125.4"
               r="9.6000004"
               id="circle80"
               style="fill:url(#SVGID_7_)" /><linearGradient
               id="SVGID_8_"
               gradientUnits="userSpaceOnUse"
               x1="162.4019"
               y1="225.6395"
               x2="162.4019"
               y2="-20.869499"><stop
                 offset="0"
                 style="stop-color:#00ADDC"
                 id="stop83" /><stop
                 offset="1"
                 style="stop-color:#6BFBFF"
                 id="stop85" /></linearGradient><path
               class="st11"
               d="m 162,199.7 0,-9.5 0,-12.7 0,-3.1 0,-11.7 0,-3.1 0,-11.4 0,-6 -5.8,0 0,6 0,11.4 0,3.1 0,11.7 0,3.1 0,12.7 0,9.5 c 0,5 4,9 8.9,9 l 3.5,0 0,-5.8 -3.5,0 c -1.7,0 -3.1,-1.5 -3.1,-3.2 z"
               id="path87"
               style="fill:url(#SVGID_8_)"
               inkscape:connector-curvature="0" /></g></g></g></g></switch></svg>