<?xml version="1.0" encoding="UTF-8" standalone="no"?>
<!-- Generator: Adobe Illustrator 21.1.0, SVG Export Plug-In . SVG Version: 6.00 Build 0)  -->

<svg
   xmlns:i="&amp;ns_ai;"
   xmlns:dc="http://purl.org/dc/elements/1.1/"
   xmlns:cc="http://creativecommons.org/ns#"
   xmlns:rdf="http://www.w3.org/1999/02/22-rdf-syntax-ns#"
   xmlns:svg="http://www.w3.org/2000/svg"
   xmlns="http://www.w3.org/2000/svg"
   xmlns:sodipodi="http://sodipodi.sourceforge.net/DTD/sodipodi-0.dtd"
   xmlns:inkscape="http://www.inkscape.org/namespaces/inkscape"
   version="1.1"
   id="Multimedia_Inactive"
   x="0px"
   y="0px"
   viewBox="0 0 300 300"
   style="enable-background:new 0 0 300 300;"
   xml:space="preserve"
   inkscape:version="0.91 r13725"
   sodipodi:docname="music_inactive.svg"><metadata
     id="metadata3511"><rdf:RDF><cc:Work
         rdf:about=""><dc:format>image/svg+xml</dc:format><dc:type
           rdf:resource="http://purl.org/dc/dcmitype/StillImage" /></cc:Work></rdf:RDF></metadata><defs
     id="defs3509" /><sodipodi:namedview
     pagecolor="#ffffff"
     bordercolor="#666666"
     borderopacity="1"
     objecttolerance="10"
     gridtolerance="10"
     guidetolerance="10"
     inkscape:pageopacity="0"
     inkscape:pageshadow="2"
     inkscape:window-width="1573"
     inkscape:window-height="876"
     id="namedview3507"
     showgrid="false"
     inkscape:zoom="0.78666667"
     inkscape:cx="-90.254237"
     inkscape:cy="150"
     inkscape:window-x="0"
     inkscape:window-y="27"
     inkscape:window-maximized="0"
     inkscape:current-layer="Multimedia_Inactive" /><style
     type="text/css"
     id="style3476">
	.st0{fill:#FFFFFF;}
	.st1{font-family:'Roboto-Regular';}
	.st2{font-size:25px;}
	.st3{letter-spacing:6;}
	.st4{fill:url(#SVGID_1_);}
	.st5{fill:url(#SVGID_2_);}
	.st6{fill:url(#SVGID_3_);}
</style><switch
     id="switch3478"
     transform="matrix(1.3307804,0,0,1.3314313,-62.924861,-27.945794)"><g
       i:extraneous="self"
       id="g3480"><g
         id="g3482"><g
           id="g3484"><linearGradient
             id="SVGID_1_"
             gradientUnits="userSpaceOnUse"
             x1="4.0481"
             y1="287.94919"
             x2="320.4859"
             y2="-15.4029"
             gradientTransform="matrix(1,0.00546456,-0.00546456,1,-2.0192,-3.0212)"><stop
               offset="0"
               style="stop-color:#00ADDC"
               id="stop3487" /><stop
               offset="1"
               style="stop-color:#6BFBFF"
               id="stop3489" /></linearGradient><path
             class="st4"
             d="m 160,238.8 c -0.2,0 -0.4,0 -0.6,0 C 101.4,238.5 54.5,191.1 54.8,133.1 55.2,75.3 102.3,28.5 160,28.5 c 0.2,0 0.4,0 0.6,0 58,0.3 104.9,47.7 104.6,105.7 l 0,0 C 264.8,192 217.7,238.8 160,238.8 Z m 0,-206.6 c -55.7,0 -101.2,45.2 -101.5,100.9 -0.3,55.9 45,101.7 100.9,102 0.2,0 0.4,0 0.6,0 55.7,0 101.2,-45.2 101.5,-100.9 0.3,-55.9 -45,-101.7 -100.9,-102 -0.2,0 -0.4,0 -0.6,0 z"
             id="path3491"
             style="fill:url(#SVGID_1_)"
             inkscape:connector-curvature="0" /><linearGradient
             id="SVGID_2_"
             gradientUnits="userSpaceOnUse"
             x1="140.72141"
             y1="202.2363"
             x2="187.02119"
             y2="68.704903"><stop
               offset="0"
               style="stop-color:#00ADDC"
               id="stop3494" /><stop
               offset="1"
               style="stop-color:#6BFBFF"
               id="stop3496" /></linearGradient><path
             class="st5"
             d="m 114.7,190.9 c -6.4,0 -12,-2.6 -14.8,-7.5 -2.9,-4.9 -5.4,-14.5 9.6,-23.2 4.8,-2.8 17.1,-3.9 20.8,-4 l 0.1,3.6 c -4.6,0.1 -15.5,1.4 -19.1,3.5 -9.4,5.4 -12.1,11.5 -8.3,18.3 3.8,6.6 14.6,7.6 24,2.2 6.6,-3.8 10.6,-10.5 10.7,-17.9 l -0.1,-0.7 0,-69.8 71.9,-14.2 0.1,71.3 c 0,6.7 -3.3,16.4 -12.5,21.8 -11.1,6.4 -24.1,4.8 -28.9,-3.5 -2.9,-4.9 -5.4,-14.5 9.6,-23.2 4.4,-2.5 14.4,-3.8 18.8,-3.9 l 0.1,3.6 c -4.2,0.1 -13.5,1.4 -17.1,3.5 -6.4,3.7 -13.1,9.9 -8.3,18.3 3.8,6.6 14.6,7.6 24,2.2 7.9,-4.5 10.7,-12.8 10.7,-18.5 l -0.1,-0.8 0,-66.4 -64.7,12.7 0,66.8 0.1,0.7 c 0,8.7 -4.7,16.6 -12.5,21.1 -4.7,2.7 -9.6,4 -14.1,4 z"
             id="path3498"
             style="fill:url(#SVGID_2_)"
             inkscape:connector-curvature="0" /><linearGradient
             id="SVGID_3_"
             gradientUnits="userSpaceOnUse"
             x1="145.50549"
             y1="203.8951"
             x2="191.8053"
             y2="70.363701"><stop
               offset="0"
               style="stop-color:#00ADDC"
               id="stop3501" /><stop
               offset="1"
               style="stop-color:#6BFBFF"
               id="stop3503" /></linearGradient><polygon
             class="st6"
             points="196.5,113.7 155.8,123.3 155,119.8 195.6,110.2 "
             id="polygon3505"
             style="fill:url(#SVGID_3_)" /></g></g></g></switch></svg>