<?xml version="1.0" encoding="UTF-8" standalone="no"?>
<!-- Generator: Adobe Illustrator 21.1.0, SVG Export Plug-In . SVG Version: 6.00 Build 0)  -->

<svg
   xmlns:i="&amp;ns_ai;"
   xmlns:dc="http://purl.org/dc/elements/1.1/"
   xmlns:cc="http://creativecommons.org/ns#"
   xmlns:rdf="http://www.w3.org/1999/02/22-rdf-syntax-ns#"
   xmlns:svg="http://www.w3.org/2000/svg"
   xmlns="http://www.w3.org/2000/svg"
   xmlns:sodipodi="http://sodipodi.sourceforge.net/DTD/sodipodi-0.dtd"
   xmlns:inkscape="http://www.inkscape.org/namespaces/inkscape"
   version="1.1"
   id="Mixer_Active_1_"
   x="0px"
   y="0px"
   viewBox="0 0 300 300"
   style="enable-background:new 0 0 300 300;"
   xml:space="preserve"
   inkscape:version="0.91 r13725"
   sodipodi:docname="mixer_active.svg"><metadata
     id="metadata5706"><rdf:RDF><cc:Work
         rdf:about=""><dc:format>image/svg+xml</dc:format><dc:type
           rdf:resource="http://purl.org/dc/dcmitype/StillImage" /></cc:Work></rdf:RDF></metadata><defs
     id="defs5704" /><sodipodi:namedview
     pagecolor="#ffffff"
     bordercolor="#666666"
     borderopacity="1"
     objecttolerance="10"
     gridtolerance="10"
     guidetolerance="10"
     inkscape:pageopacity="0"
     inkscape:pageshadow="2"
     inkscape:window-width="1297"
     inkscape:window-height="748"
     id="namedview5702"
     showgrid="false"
     inkscape:zoom="0.5"
     inkscape:cx="-90.254237"
     inkscape:cy="150"
     inkscape:window-x="0"
     inkscape:window-y="27"
     inkscape:window-maximized="0"
     inkscape:current-layer="Mixer_Active_1_" /><style
     type="text/css"
     id="style5572">
	.st0{fill:url(#SVGID_1_);}
	.st1{opacity:0.4;fill:url(#SVGID_2_);}
	.st2{fill:#FFFFFF;}
	.st3{font-family:'Roboto-Regular';}
	.st4{font-size:25px;}
	.st5{letter-spacing:6;}
	.st6{fill:url(#SVGID_3_);}
	.st7{fill:url(#SVGID_4_);}
	.st8{fill:url(#SVGID_5_);}
	.st9{fill:url(#SVGID_6_);}
	.st10{fill:url(#SVGID_7_);}
	.st11{fill:url(#SVGID_8_);}
	.st12{fill:url(#SVGID_9_);}
	.st13{fill:url(#SVGID_10_);}
	.st14{fill:url(#SVGID_11_);}
	.st15{fill:url(#SVGID_12_);}
	.st16{fill:url(#SVGID_13_);}
	.st17{fill:url(#SVGID_14_);}
	.st18{fill:url(#SVGID_15_);}
</style><switch
     id="switch5574"
     transform="matrix(1.3307804,0,0,1.3314313,-62.924861,-27.945794)"><g
       i:extraneous="self"
       id="g5576"><linearGradient
         id="SVGID_1_"
         gradientUnits="userSpaceOnUse"
         x1="116.0821"
         y1="254.39191"
         x2="256.53561"
         y2="-133.31841"><stop
           offset="0"
           style="stop-color:#0DF9FF"
           id="stop5579" /><stop
           offset="9.208472e-02"
           style="stop-color:#0DF9FF;stop-opacity:0.853"
           id="stop5581" /><stop
           offset="0.6264"
           style="stop-color:#0DF9FF;stop-opacity:0"
           id="stop5583" /></linearGradient><circle
         class="st0"
         cx="159.8"
         cy="133.60001"
         r="101.9"
         id="circle5585"
         style="fill:url(#SVGID_1_)" /><linearGradient
         id="SVGID_2_"
         gradientUnits="userSpaceOnUse"
         x1="-55.796902"
         y1="435.51099"
         x2="216.9304"
         y2="53.692902"><stop
           offset="0.2978"
           style="stop-color:#FFFFFF;stop-opacity:0"
           id="stop5588" /><stop
           offset="0.3685"
           style="stop-color:#FAFAFA;stop-opacity:0.1007"
           id="stop5590" /><stop
           offset="0.4554"
           style="stop-color:#EBEBEB;stop-opacity:0.2245"
           id="stop5592" /><stop
           offset="0.5508"
           style="stop-color:#D2D2D2;stop-opacity:0.3603"
           id="stop5594" /><stop
           offset="0.6523"
           style="stop-color:#AFAFAF;stop-opacity:0.5048"
           id="stop5596" /><stop
           offset="0.7585"
           style="stop-color:#828282;stop-opacity:0.6562"
           id="stop5598" /><stop
           offset="0.8689"
           style="stop-color:#4B4B4B;stop-opacity:0.8133"
           id="stop5600" /><stop
           offset="0.9806"
           style="stop-color:#0C0C0C;stop-opacity:0.9724"
           id="stop5602" /><stop
           offset="1"
           style="stop-color:#000000"
           id="stop5604" /></linearGradient><circle
         class="st1"
         cx="159.8"
         cy="133.60001"
         r="101.9"
         id="circle5606"
         style="opacity:0.4;fill:url(#SVGID_2_)" /><g
         id="g5608"><linearGradient
           id="SVGID_3_"
           gradientUnits="userSpaceOnUse"
           x1="113.6835"
           y1="245.222"
           x2="205.1835"
           y2="41.222"
           gradientTransform="matrix(1,0.00546456,-0.00546456,1,-2.0192,-3.0212)"><stop
             offset="0"
             style="stop-color:#00ADDC"
             id="stop5611" /><stop
             offset="1"
             style="stop-color:#6BFBFF"
             id="stop5613" /></linearGradient><path
           class="st6"
           d="m 160,238.8 c -0.2,0 -0.4,0 -0.6,0 C 101.4,238.5 54.5,191.1 54.8,133.1 55.2,75.3 102.3,28.5 160,28.5 c 0.2,0 0.4,0 0.6,0 58,0.3 104.9,47.7 104.6,105.7 l 0,0 C 264.8,192 217.7,238.8 160,238.8 Z m 0,-206.6 c -55.7,0 -101.2,45.2 -101.5,100.9 -0.3,55.9 45,101.7 100.9,102 0.2,0 0.4,0 0.6,0 55.7,0 101.2,-45.2 101.5,-100.9 0.3,-55.9 -45,-101.7 -100.9,-102 -0.2,0 -0.4,0 -0.6,0 z"
           id="path5615"
           style="fill:url(#SVGID_3_)"
           inkscape:connector-curvature="0" /><g
           id="mixer_1_"><linearGradient
             id="SVGID_4_"
             gradientUnits="userSpaceOnUse"
             x1="63.2808"
             y1="222.6149"
             x2="154.78081"
             y2="18.614901"><stop
               offset="0"
               style="stop-color:#00ADDC"
               id="stop5619" /><stop
               offset="1"
               style="stop-color:#6BFBFF"
               id="stop5621" /></linearGradient><rect
             x="113.2"
             y="75.699997"
             class="st7"
             width="4.5"
             height="61.200001"
             id="rect5623"
             style="fill:url(#SVGID_4_)" /><linearGradient
             id="SVGID_5_"
             gradientUnits="userSpaceOnUse"
             x1="91.1007"
             y1="235.093"
             x2="182.60069"
             y2="31.093"><stop
               offset="0"
               style="stop-color:#00ADDC"
               id="stop5626" /><stop
               offset="1"
               style="stop-color:#6BFBFF"
               id="stop5628" /></linearGradient><rect
             x="113.2"
             y="163.60001"
             class="st8"
             width="4.5"
             height="34.5"
             id="rect5630"
             style="fill:url(#SVGID_5_)" /><linearGradient
             id="SVGID_6_"
             gradientUnits="userSpaceOnUse"
             x1="82.610298"
             y1="231.28481"
             x2="174.11031"
             y2="27.2848"><stop
               offset="0"
               style="stop-color:#00ADDC"
               id="stop5633" /><stop
               offset="1"
               style="stop-color:#6BFBFF"
               id="stop5635" /></linearGradient><rect
             x="142.5"
             y="75.699997"
             class="st9"
             width="4.5"
             height="34.299999"
             id="rect5637"
             style="fill:url(#SVGID_6_)" /><linearGradient
             id="SVGID_7_"
             gradientUnits="userSpaceOnUse"
             x1="111.0053"
             y1="244.0208"
             x2="202.50529"
             y2="40.020699"><stop
               offset="0"
               style="stop-color:#00ADDC"
               id="stop5640" /><stop
               offset="1"
               style="stop-color:#6BFBFF"
               id="stop5642" /></linearGradient><rect
             x="142.5"
             y="139.8"
             class="st10"
             width="4.5"
             height="58.299999"
             id="rect5644"
             style="fill:url(#SVGID_7_)" /><linearGradient
             id="SVGID_8_"
             gradientUnits="userSpaceOnUse"
             x1="111.9398"
             y1="244.4399"
             x2="203.4398"
             y2="40.439899"><stop
               offset="0"
               style="stop-color:#00ADDC"
               id="stop5647" /><stop
               offset="1"
               style="stop-color:#6BFBFF"
               id="stop5649" /></linearGradient><rect
             x="171.7"
             y="75.699997"
             class="st11"
             width="4.5"
             height="61.200001"
             id="rect5651"
             style="fill:url(#SVGID_8_)" /><linearGradient
             id="SVGID_9_"
             gradientUnits="userSpaceOnUse"
             x1="139.88451"
             y1="256.97391"
             x2="231.38451"
             y2="52.9739"><stop
               offset="0"
               style="stop-color:#00ADDC"
               id="stop5654" /><stop
               offset="1"
               style="stop-color:#6BFBFF"
               id="stop5656" /></linearGradient><rect
             x="171.7"
             y="164.2"
             class="st12"
             width="4.5"
             height="33.900002"
             id="rect5658"
             style="fill:url(#SVGID_9_)" /><linearGradient
             id="SVGID_10_"
             gradientUnits="userSpaceOnUse"
             x1="129.57471"
             y1="252.3497"
             x2="221.07471"
             y2="48.349701"><stop
               offset="0"
               style="stop-color:#00ADDC"
               id="stop5661" /><stop
               offset="1"
               style="stop-color:#6BFBFF"
               id="stop5663" /></linearGradient><rect
             x="202.8"
             y="75.699997"
             class="st13"
             width="4.5"
             height="16.700001"
             id="rect5665"
             style="fill:url(#SVGID_10_)" /><linearGradient
             id="SVGID_11_"
             gradientUnits="userSpaceOnUse"
             x1="158.3318"
             y1="265.24811"
             x2="249.8318"
             y2="61.2481"><stop
               offset="0"
               style="stop-color:#00ADDC"
               id="stop5668" /><stop
               offset="1"
               style="stop-color:#6BFBFF"
               id="stop5670" /></linearGradient><rect
             x="202.8"
             y="124.1"
             class="st14"
             width="4.5"
             height="74"
             id="rect5672"
             style="fill:url(#SVGID_11_)" /><linearGradient
             id="SVGID_12_"
             gradientUnits="userSpaceOnUse"
             x1="79.700302"
             y1="229.97951"
             x2="171.2003"
             y2="25.9795"><stop
               offset="0"
               style="stop-color:#00ADDC"
               id="stop5675" /><stop
               offset="1"
               style="stop-color:#6BFBFF"
               id="stop5677" /></linearGradient><path
             class="st15"
             d="m 115.4,141.4 c -4.9,0 -8.9,4 -8.9,8.9 0,4.9 4,8.9 8.9,8.9 4.9,0 8.9,-4 8.9,-8.9 0,-4.9 -4,-8.9 -8.9,-8.9 z m 0,13.4 c -2.5,0 -4.5,-2 -4.5,-4.4 0,-2.5 2,-4.5 4.5,-4.5 2.5,0 4.5,2 4.5,4.5 0,2.4 -2,4.4 -4.5,4.4 z"
             id="path5679"
             style="fill:url(#SVGID_12_)"
             inkscape:connector-curvature="0" /><linearGradient
             id="SVGID_13_"
             gradientUnits="userSpaceOnUse"
             x1="94.226303"
             y1="236.4949"
             x2="185.7263"
             y2="32.4949"><stop
               offset="0"
               style="stop-color:#00ADDC"
               id="stop5682" /><stop
               offset="1"
               style="stop-color:#6BFBFF"
               id="stop5684" /></linearGradient><path
             class="st16"
             d="m 144.4,115.8 c -4.9,0 -8.9,4 -8.9,8.9 0,4.9 4,8.9 8.9,8.9 4.9,0 8.9,-4 8.9,-8.9 0,-4.9 -4,-8.9 -8.9,-8.9 z m 0,13.4 c -2.5,0 -4.5,-2 -4.5,-4.5 0,-2.5 2,-4.5 4.5,-4.5 2.5,0 4.4,2 4.4,4.5 0,2.5 -2,4.5 -4.4,4.5 z"
             id="path5686"
             style="fill:url(#SVGID_13_)"
             inkscape:connector-curvature="0" /><linearGradient
             id="SVGID_14_"
             gradientUnits="userSpaceOnUse"
             x1="128.36971"
             y1="251.8092"
             x2="219.86971"
             y2="47.8092"><stop
               offset="0"
               style="stop-color:#00ADDC"
               id="stop5689" /><stop
               offset="1"
               style="stop-color:#6BFBFF"
               id="stop5691" /></linearGradient><path
             class="st17"
             d="m 173.9,141.4 c -4.9,0 -8.9,4 -8.9,8.9 0,4.9 4,8.9 8.9,8.9 4.9,0 8.9,-4 8.9,-8.9 0,-4.9 -4,-8.9 -8.9,-8.9 z m 0,13.4 c -2.5,0 -4.4,-2 -4.4,-4.4 0,-2.5 2,-4.5 4.4,-4.5 2.5,0 4.5,2 4.5,4.5 -0.1,2.4 -2.1,4.4 -4.5,4.4 z"
             id="path5693"
             style="fill:url(#SVGID_14_)"
             inkscape:connector-curvature="0" /><linearGradient
             id="SVGID_15_"
             gradientUnits="userSpaceOnUse"
             x1="138.8425"
             y1="256.50659"
             x2="230.3425"
             y2="52.506599"><stop
               offset="0"
               style="stop-color:#00ADDC"
               id="stop5696" /><stop
               offset="1"
               style="stop-color:#6BFBFF"
               id="stop5698" /></linearGradient><path
             class="st18"
             d="m 205,100 c -4.9,0 -8.9,4 -8.9,8.9 0,4.9 4,8.9 8.9,8.9 4.9,0 8.9,-4 8.9,-8.9 0,-4.9 -4,-8.9 -8.9,-8.9 z m 0,13.4 c -2.5,0 -4.4,-2 -4.4,-4.5 0,-2.5 2,-4.5 4.4,-4.5 2.5,0 4.5,2 4.5,4.5 0,2.5 -2,4.5 -4.5,4.5 z"
             id="path5700"
             style="fill:url(#SVGID_15_)"
             inkscape:connector-curvature="0" /></g></g></g></switch></svg>