<?xml version="1.0" encoding="UTF-8" standalone="no"?>
<!-- Generator: Adobe Illustrator 21.1.0, SVG Export Plug-In . SVG Version: 6.00 Build 0)  -->

<svg
   xmlns:i="&amp;ns_ai;"
   xmlns:dc="http://purl.org/dc/elements/1.1/"
   xmlns:cc="http://creativecommons.org/ns#"
   xmlns:rdf="http://www.w3.org/1999/02/22-rdf-syntax-ns#"
   xmlns:svg="http://www.w3.org/2000/svg"
   xmlns="http://www.w3.org/2000/svg"
   xmlns:sodipodi="http://sodipodi.sourceforge.net/DTD/sodipodi-0.dtd"
   xmlns:inkscape="http://www.inkscape.org/namespaces/inkscape"
   version="1.1"
   id="Navigation_Inactive"
   x="0px"
   y="0px"
   viewBox="0 0 300 300"
   style="enable-background:new 0 0 300 300;"
   xml:space="preserve"
   inkscape:version="0.91 r13725"
   sodipodi:docname="navigation_inactive.svg"><metadata
     id="metadata3897"><rdf:RDF><cc:Work
         rdf:about=""><dc:format>image/svg+xml</dc:format><dc:type
           rdf:resource="http://purl.org/dc/dcmitype/StillImage" /></cc:Work></rdf:RDF></metadata><defs
     id="defs3895" /><sodipodi:namedview
     pagecolor="#ffffff"
     bordercolor="#666666"
     borderopacity="1"
     objecttolerance="10"
     gridtolerance="10"
     guidetolerance="10"
     inkscape:pageopacity="0"
     inkscape:pageshadow="2"
     inkscape:window-width="1456"
     inkscape:window-height="824"
     id="namedview3893"
     showgrid="false"
     inkscape:zoom="0.78666667"
     inkscape:cx="-90.254237"
     inkscape:cy="150"
     inkscape:window-x="0"
     inkscape:window-y="27"
     inkscape:window-maximized="0"
     inkscape:current-layer="Navigation_Inactive" /><style
     type="text/css"
     id="style3836">
	.st0{fill:#FFFFFF;}
	.st1{font-family:'Roboto-Regular';}
	.st2{font-size:25px;}
	.st3{letter-spacing:6;}
	.st4{fill:url(#SVGID_1_);}
	.st5{fill:url(#SVGID_2_);}
	.st6{fill:url(#SVGID_3_);}
	.st7{fill:url(#SVGID_4_);}
	.st8{fill:url(#SVGID_5_);}
	.st9{fill:url(#SVGID_6_);}
	.st10{fill:url(#SVGID_7_);}
</style><switch
     id="switch3838"
     transform="matrix(1.3307804,0,0,1.3314313,-62.924861,-27.945794)"><g
       i:extraneous="self"
       id="g3840"><g
         id="g3842"><linearGradient
           id="SVGID_1_"
           gradientUnits="userSpaceOnUse"
           x1="4.0481"
           y1="287.94919"
           x2="320.4859"
           y2="-15.4029"
           gradientTransform="matrix(1,0.00546456,-0.00546456,1,-2.0192,-3.0212)"><stop
             offset="0"
             style="stop-color:#00ADDC"
             id="stop3845" /><stop
             offset="1"
             style="stop-color:#6BFBFF"
             id="stop3847" /></linearGradient><path
           class="st4"
           d="m 160,238.8 c -0.2,0 -0.4,0 -0.6,0 C 101.4,238.5 54.5,191.1 54.8,133.1 55.2,75.3 102.3,28.5 160,28.5 c 0.2,0 0.4,0 0.6,0 58,0.3 104.9,47.7 104.6,105.7 l 0,0 C 264.8,192 217.7,238.8 160,238.8 Z m 0,-206.6 c -55.7,0 -101.2,45.2 -101.5,100.9 -0.3,55.9 45,101.7 100.9,102 0.2,0 0.4,0 0.6,0 55.7,0 101.2,-45.2 101.5,-100.9 0.3,-55.9 -45,-101.7 -100.9,-102 -0.2,0 -0.4,0 -0.6,0 z"
           id="path3849"
           style="fill:url(#SVGID_1_)"
           inkscape:connector-curvature="0" /><linearGradient
           id="SVGID_2_"
           gradientUnits="userSpaceOnUse"
           x1="217.7681"
           y1="287.112"
           x2="149.73309"
           y2="-43.9916"><stop
             offset="0"
             style="stop-color:#00ADDC"
             id="stop3852" /><stop
             offset="1"
             style="stop-color:#6BFBFF"
             id="stop3854" /></linearGradient><path
           class="st5"
           d="m 185.5,129.4 c -2.4,0 -4.2,1.8 -4.2,4.2 0,9.1 -5.7,17 -14.1,19.9 -1.7,0.6 -2.8,2.1 -2.8,4 l 0,30.6 c 0,1.3 0.6,2.4 1.4,3.3 1,0.8 2.1,1.1 3.4,1 29,-4.5 50.4,-29.4 50.4,-58.7 0,-2.4 -1.8,-4.2 -4.2,-4.2 l -29.9,0 z m -17,58.7 0,-30.4 c 9.9,-3.5 17,-12.9 17,-24 l 29.7,0 c 0,27.5 -20.3,50.5 -46.7,54.4 z"
           id="path3856"
           style="fill:url(#SVGID_2_)"
           inkscape:connector-curvature="0" /><linearGradient
           id="SVGID_3_"
           gradientUnits="userSpaceOnUse"
           x1="159.0916"
           y1="299.16891"
           x2="91.056602"
           y2="-31.934799"><stop
             offset="0"
             style="stop-color:#00ADDC"
             id="stop3859" /><stop
             offset="1"
             style="stop-color:#6BFBFF"
             id="stop3861" /></linearGradient><path
           class="st6"
           d="m 152.9,153.6 c -8.5,-3 -14.1,-10.9 -14.1,-19.9 0,-2.4 -1.8,-4.2 -4.2,-4.2 l -29.7,0 c -2.4,0 -4.2,1.8 -4.2,4.2 0,29.3 21.4,54.2 50.2,58.7 1.3,0.1 2.4,-0.1 3.4,-1 1,-0.8 1.4,-2 1.4,-3.3 l 0,-30.4 c 0.1,-1.8 -1.1,-3.4 -2.8,-4.1 z m -1.4,34.5 c -26.5,-4 -46.7,-26.9 -46.7,-54.5 l 29.7,0 c 0,11 7.1,20.5 17,24 l 0,30.5 z"
           id="path3863"
           style="fill:url(#SVGID_3_)"
           inkscape:connector-curvature="0" /><linearGradient
           id="SVGID_4_"
           gradientUnits="userSpaceOnUse"
           x1="192.5936"
           y1="292.28491"
           x2="124.5586"
           y2="-38.818802"><stop
             offset="0"
             style="stop-color:#00ADDC"
             id="stop3866" /><stop
             offset="1"
             style="stop-color:#6BFBFF"
             id="stop3868" /></linearGradient><path
           class="st7"
           d="m 172.7,133.7 c 0,-7.1 -5.7,-12.7 -12.7,-12.7 -7,0 -12.7,5.7 -12.7,12.7 0,7.1 5.7,12.7 12.7,12.7 7,0 12.7,-5.7 12.7,-12.7 z m -12.7,8.5 c -4.7,0 -8.5,-3.8 -8.5,-8.5 0,-4.7 3.8,-8.5 8.5,-8.5 4.7,0 8.5,3.8 8.5,8.5 0,4.7 -3.8,8.5 -8.5,8.5 z"
           id="path3870"
           style="fill:url(#SVGID_4_)"
           inkscape:connector-curvature="0" /><linearGradient
           id="SVGID_5_"
           gradientUnits="userSpaceOnUse"
           x1="196.1102"
           y1="291.56229"
           x2="128.0752"
           y2="-39.541401"><stop
             offset="0"
             style="stop-color:#00ADDC"
             id="stop3873" /><stop
             offset="1"
             style="stop-color:#6BFBFF"
             id="stop3875" /></linearGradient><path
           class="st8"
           d="m 160,70 c 29,0 53.4,19.3 61.1,45.8 l 4.4,0 c -7.8,-28.8 -34.2,-50 -65.5,-50 -31.3,0 -57.7,21.2 -65.5,50 l 4.4,0 C 106.6,89.3 131,70 160,70 Z"
           id="path3877"
           style="fill:url(#SVGID_5_)"
           inkscape:connector-curvature="0" /><linearGradient
           id="SVGID_6_"
           gradientUnits="userSpaceOnUse"
           x1="195.9514"
           y1="291.59491"
           x2="127.9165"
           y2="-39.508701"><stop
             offset="0"
             style="stop-color:#00ADDC"
             id="stop3880" /><stop
             offset="1"
             style="stop-color:#6BFBFF"
             id="stop3882" /></linearGradient><path
           class="st9"
           d="m 160,74.2 c -25.7,0 -48.7,16.7 -56.6,41.2 -0.4,1.3 -0.1,2.7 0.7,3.8 0.7,1.1 2,1.7 3.4,1.7 l 33.5,0 c 1.3,0 2.3,-0.4 3.1,-1.4 4.1,-4.5 9.8,-7.1 15.8,-7.1 6,0 11.7,2.5 15.8,7.1 0.8,1 2,1.4 3.1,1.4 l 33.5,0 c 1.4,0 2.5,-0.6 3.4,-1.7 0.8,-1.1 1.1,-2.5 0.7,-3.8 C 208.7,90.9 185.7,74.2 160,74.2 Z m 19,42.5 c -4.7,-5.2 -11.5,-8.5 -19,-8.5 -7.5,0 -14.3,3.3 -19,8.5 l -33.5,0 c 7.1,-22.2 27.9,-38.2 52.5,-38.2 24.6,0 45.4,16 52.5,38.2 l -33.5,0 z"
           id="path3884"
           style="fill:url(#SVGID_6_)"
           inkscape:connector-curvature="0" /><linearGradient
           id="SVGID_7_"
           gradientUnits="userSpaceOnUse"
           x1="192.0486"
           y1="292.39691"
           x2="124.0136"
           y2="-38.706799"><stop
             offset="0"
             style="stop-color:#00ADDC"
             id="stop3887" /><stop
             offset="1"
             style="stop-color:#6BFBFF"
             id="stop3889" /></linearGradient><path
           class="st10"
           d="m 223.7,133.7 c 0,35.2 -28.4,63.7 -63.7,63.7 -35.3,0 -63.7,-28.4 -63.7,-63.7 0,-0.5 0,-1.1 0,-1.6 l -4.2,0 c 0,0.5 0,1.1 0,1.6 0,37.5 30.4,67.9 67.9,67.9 37.5,0 67.9,-30.4 67.9,-67.9 0,-0.5 0,-1.1 0,-1.6 l -4.2,0 c -0.1,0.5 0,1 0,1.6 z"
           id="path3891"
           style="fill:url(#SVGID_7_)"
           inkscape:connector-curvature="0" /></g></g></switch></svg>