<?xml version="1.0" encoding="UTF-8" standalone="no"?>
<!-- Generator: Adobe Illustrator 21.1.0, SVG Export Plug-In . SVG Version: 6.00 Build 0)  -->

<svg
   xmlns:i="&amp;ns_ai;"
   xmlns:dc="http://purl.org/dc/elements/1.1/"
   xmlns:cc="http://creativecommons.org/ns#"
   xmlns:rdf="http://www.w3.org/1999/02/22-rdf-syntax-ns#"
   xmlns:svg="http://www.w3.org/2000/svg"
   xmlns="http://www.w3.org/2000/svg"
   xmlns:sodipodi="http://sodipodi.sourceforge.net/DTD/sodipodi-0.dtd"
   xmlns:inkscape="http://www.inkscape.org/namespaces/inkscape"
   version="1.1"
   id="Phone_Inactive"
   x="0px"
   y="0px"
   viewBox="0 0 300 300"
   style="enable-background:new 0 0 300 300;"
   xml:space="preserve"
   inkscape:version="0.91 r13725"
   sodipodi:docname="phone_inactive.svg"><metadata
     id="metadata4143"><rdf:RDF><cc:Work
         rdf:about=""><dc:format>image/svg+xml</dc:format><dc:type
           rdf:resource="http://purl.org/dc/dcmitype/StillImage" /></cc:Work></rdf:RDF></metadata><defs
     id="defs4141" /><sodipodi:namedview
     pagecolor="#ffffff"
     bordercolor="#666666"
     borderopacity="1"
     objecttolerance="10"
     gridtolerance="10"
     guidetolerance="10"
     inkscape:pageopacity="0"
     inkscape:pageshadow="2"
     inkscape:window-width="1363"
     inkscape:window-height="802"
     id="namedview4139"
     showgrid="false"
     inkscape:zoom="1"
     inkscape:cx="-90.254237"
     inkscape:cy="150"
     inkscape:window-x="0"
     inkscape:window-y="27"
     inkscape:window-maximized="0"
     inkscape:current-layer="Phone_Inactive" /><style
     type="text/css"
     id="style4117">
	.st0{fill:#FFFFFF;}
	.st1{font-family:'Roboto-Regular';}
	.st2{font-size:25px;}
	.st3{letter-spacing:6;}
	.st4{fill:url(#SVGID_1_);}
	.st5{fill:url(#SVGID_2_);}
</style><switch
     id="switch4119"
     transform="matrix(1.3307804,0,0,1.3314313,-62.924861,-27.945794)"><g
       i:extraneous="self"
       id="g4121"><g
         id="g4123"><linearGradient
           id="SVGID_1_"
           gradientUnits="userSpaceOnUse"
           x1="4.0481"
           y1="287.94919"
           x2="320.4859"
           y2="-15.4029"
           gradientTransform="matrix(1,0.00546456,-0.00546456,1,-2.0192,-3.0212)"><stop
             offset="0"
             style="stop-color:#00ADDC"
             id="stop4126" /><stop
             offset="1"
             style="stop-color:#6BFBFF"
             id="stop4128" /></linearGradient><path
           class="st4"
           d="m 160,238.8 c -0.2,0 -0.4,0 -0.6,0 C 101.4,238.5 54.5,191.1 54.8,133.1 55.2,75.3 102.3,28.5 160,28.5 c 0.2,0 0.4,0 0.6,0 58,0.3 104.9,47.7 104.6,105.7 l 0,0 C 264.8,192 217.7,238.8 160,238.8 Z m 0,-206.6 c -55.7,0 -101.2,45.2 -101.5,100.9 -0.3,55.9 45,101.7 100.9,102 0.2,0 0.4,0 0.6,0 55.7,0 101.2,-45.2 101.5,-100.9 0.3,-55.9 -45,-101.7 -100.9,-102 -0.2,0 -0.4,0 -0.6,0 z"
           id="path4130"
           style="fill:url(#SVGID_1_)"
           inkscape:connector-curvature="0" /><linearGradient
           id="SVGID_2_"
           gradientUnits="userSpaceOnUse"
           x1="98.422997"
           y1="134.5957"
           x2="225.57671"
           y2="134.5957"><stop
             offset="0"
             style="stop-color:#00ADDC"
             id="stop4133" /><stop
             offset="1"
             style="stop-color:#6BFBFF"
             id="stop4135" /></linearGradient><path
           class="st5"
           d="M 222.6,88.9 209.2,75.5 c -2.5,-2.5 -15.3,-4.6 -30.5,-2.6 -14,1.9 -34.6,8 -52.8,26.2 -20.4,20.4 -26,40.5 -27.2,53.8 -1.3,15 2.6,25.9 4.8,28.2 l 12.8,12.8 c 2,2 4.7,3 7.3,3 2.6,0 5.3,-1 7.3,-3 l 16.9,-21.6 c 1.9,-1.9 2.9,-4.5 2.9,-7.2 0,-2.8 -1.1,-5.4 -3,-7.3 l -10.4,-10.4 c -3.3,-3.3 -8.9,-2.9 -9.1,-2.9 0,0 -0.8,0.1 -1.2,0.6 -0.5,0.5 -9.6,9.6 -9.6,9.6 l 2.8,2.8 9,-9 c 1.2,0 3.8,0.2 5.3,1.7 l 10.4,10.4 c 1.2,1.2 1.8,2.8 1.8,4.5 0,1.7 -0.7,3.3 -1.8,4.5 L 128,191.3 c -2.5,2.4 -6.4,2.4 -8.9,-0.1 l -12.8,-12.8 c -1.1,-1.2 -4.9,-10.8 -3.7,-25.2 1.1,-12.6 6.5,-31.7 26,-51.2 32.1,-32.1 74.2,-26.4 77.7,-23.7 l 13.4,13.4 c 2.4,2.4 2.5,6.4 0.1,8.9 l -22,16.1 -0.2,0.2 c -1.2,1.2 -2.8,1.9 -4.5,1.9 -1.7,0 -3.3,-0.7 -4.5,-1.8 l -10.4,-10.4 c -1.4,-1.4 -2,-3.3 -1.8,-5.2 l 9.5,-9.5 -2.8,-2.8 -8.8,8.8 c -2.1,0.2 -19.5,2.6 -32.7,15.8 -4.8,4.8 -8.7,10.8 -11.4,17.6 l 3.7,1.5 c 2.5,-6.4 6.1,-11.8 10.5,-16.3 9.9,-9.9 22.6,-13.2 28,-14.2 0,2.7 1.1,5.3 3,7.2 l 10.4,10.4 c 1.9,1.9 4.5,3 7.3,3 2.7,0 5.3,-1 7.2,-2.9 l 22,-16.1 0.2,-0.2 c 4.1,-4.2 4.1,-10.7 0.1,-14.8 z"
           id="path4137"
           style="fill:url(#SVGID_2_)"
           inkscape:connector-curvature="0" /></g></g></switch></svg>