<?xml version="1.0" encoding="UTF-8" standalone="no"?>
<!-- Generator: Adobe Illustrator 21.1.0, SVG Export Plug-In . SVG Version: 6.00 Build 0)  -->

<svg
   xmlns:i="&amp;ns_ai;"
   xmlns:dc="http://purl.org/dc/elements/1.1/"
   xmlns:cc="http://creativecommons.org/ns#"
   xmlns:rdf="http://www.w3.org/1999/02/22-rdf-syntax-ns#"
   xmlns:svg="http://www.w3.org/2000/svg"
   xmlns="http://www.w3.org/2000/svg"
   xmlns:sodipodi="http://sodipodi.sourceforge.net/DTD/sodipodi-0.dtd"
   xmlns:inkscape="http://www.inkscape.org/namespaces/inkscape"
   version="1.1"
   id="Settings_Active"
   x="0px"
   y="0px"
   viewBox="0 0 300 300"
   style="enable-background:new 0 0 300 300;"
   xml:space="preserve"
   inkscape:version="0.91 r13725"
   sodipodi:docname="settings_active.svg"><metadata
     id="metadata5498"><rdf:RDF><cc:Work
         rdf:about=""><dc:format>image/svg+xml</dc:format><dc:type
           rdf:resource="http://purl.org/dc/dcmitype/StillImage" /></cc:Work></rdf:RDF></metadata><defs
     id="defs5496" /><sodipodi:namedview
     pagecolor="#ffffff"
     bordercolor="#666666"
     borderopacity="1"
     objecttolerance="10"
     gridtolerance="10"
     guidetolerance="10"
     inkscape:pageopacity="0"
     inkscape:pageshadow="2"
     inkscape:window-width="1319"
     inkscape:window-height="769"
     id="namedview5494"
     showgrid="false"
     inkscape:zoom="0.78666667"
     inkscape:cx="-87.860593"
     inkscape:cy="150"
     inkscape:window-x="0"
     inkscape:window-y="27"
     inkscape:window-maximized="0"
     inkscape:current-layer="Settings_Active" /><style
     type="text/css"
     id="style5429">
	.st0{fill:url(#SVGID_1_);}
	.st1{opacity:0.4;fill:url(#SVGID_2_);}
	.st2{fill:#FFFFFF;}
	.st3{font-family:'Roboto-Regular';}
	.st4{font-size:25px;}
	.st5{letter-spacing:6;}
	.st6{fill:url(#SVGID_3_);}
	.st7{fill:url(#SVGID_4_);}
	.st8{fill:url(#SVGID_5_);}
</style><switch
     id="switch5431"
     transform="matrix(1.3307804,0,0,1.3314313,-62.924861,-27.945794)"><g
       i:extraneous="self"
       id="g5433"><linearGradient
         id="SVGID_1_"
         gradientUnits="userSpaceOnUse"
         x1="116.0821"
         y1="254.39191"
         x2="256.53561"
         y2="-133.31841"><stop
           offset="0"
           style="stop-color:#0DF9FF"
           id="stop5436" /><stop
           offset="9.208472e-02"
           style="stop-color:#0DF9FF;stop-opacity:0.853"
           id="stop5438" /><stop
           offset="0.6264"
           style="stop-color:#0DF9FF;stop-opacity:0"
           id="stop5440" /></linearGradient><circle
         class="st0"
         cx="159.8"
         cy="133.60001"
         r="101.9"
         id="circle5442"
         style="fill:url(#SVGID_1_)" /><linearGradient
         id="SVGID_2_"
         gradientUnits="userSpaceOnUse"
         x1="-55.796902"
         y1="435.51099"
         x2="216.9304"
         y2="53.692902"><stop
           offset="0.2978"
           style="stop-color:#FFFFFF;stop-opacity:0"
           id="stop5445" /><stop
           offset="0.3685"
           style="stop-color:#FAFAFA;stop-opacity:0.1007"
           id="stop5447" /><stop
           offset="0.4554"
           style="stop-color:#EBEBEB;stop-opacity:0.2245"
           id="stop5449" /><stop
           offset="0.5508"
           style="stop-color:#D2D2D2;stop-opacity:0.3603"
           id="stop5451" /><stop
           offset="0.6523"
           style="stop-color:#AFAFAF;stop-opacity:0.5048"
           id="stop5453" /><stop
           offset="0.7585"
           style="stop-color:#828282;stop-opacity:0.6562"
           id="stop5455" /><stop
           offset="0.8689"
           style="stop-color:#4B4B4B;stop-opacity:0.8133"
           id="stop5457" /><stop
           offset="0.9806"
           style="stop-color:#0C0C0C;stop-opacity:0.9724"
           id="stop5459" /><stop
           offset="1"
           style="stop-color:#000000"
           id="stop5461" /></linearGradient><circle
         class="st1"
         cx="159.8"
         cy="133.60001"
         r="101.9"
         id="circle5463"
         style="opacity:0.4;fill:url(#SVGID_2_)" /><g
         id="g5465"><linearGradient
           id="SVGID_3_"
           gradientUnits="userSpaceOnUse"
           x1="4.0481"
           y1="287.94919"
           x2="320.4859"
           y2="-15.4029"
           gradientTransform="matrix(1,0.00546456,-0.00546456,1,-2.0192,-3.0212)"><stop
             offset="0"
             style="stop-color:#00ADDC"
             id="stop5468" /><stop
             offset="1"
             style="stop-color:#6BFBFF"
             id="stop5470" /></linearGradient><path
           class="st6"
           d="m 160,238.8 c -0.2,0 -0.4,0 -0.6,0 C 101.4,238.5 54.5,191.1 54.8,133.1 55.2,75.3 102.3,28.5 160,28.5 c 0.2,0 0.4,0 0.6,0 58,0.3 104.9,47.7 104.6,105.7 l 0,0 C 264.8,192 217.7,238.8 160,238.8 Z m 0,-206.6 c -55.7,0 -101.2,45.2 -101.5,100.9 -0.3,55.9 45,101.7 100.9,102 0.2,0 0.4,0 0.6,0 55.7,0 101.2,-45.2 101.5,-100.9 0.3,-55.9 -45,-101.7 -100.9,-102 -0.2,0 -0.4,0 -0.6,0 z"
           id="path5472"
           style="fill:url(#SVGID_3_)"
           inkscape:connector-curvature="0" /><g
           id="g5474"><g
             id="g5476"><linearGradient
               id="SVGID_4_"
               gradientUnits="userSpaceOnUse"
               x1="79.180397"
               y1="226.0817"
               x2="282.75201"
               y2="-4.8608999"><stop
                 offset="0"
                 style="stop-color:#00ADDC"
                 id="stop5479" /><stop
                 offset="1"
                 style="stop-color:#6BFBFF"
                 id="stop5481" /></linearGradient><path
               class="st7"
               d="m 159.9,163.9 c -16.3,0 -29.5,-13.2 -29.5,-29.4 0,-16.2 13.2,-29.4 29.5,-29.4 l 0,3.9 c -14.1,0 -25.5,11.4 -25.5,25.5 0,14 11.5,25.5 25.5,25.5 14.1,0 25.6,-11.4 25.6,-25.5 l 3.9,0 c 0,16.2 -13.2,29.4 -29.5,29.4 z"
               id="path5483"
               style="fill:url(#SVGID_4_)"
               inkscape:connector-curvature="0" /></g><g
             id="g5485"><linearGradient
               id="SVGID_5_"
               gradientUnits="userSpaceOnUse"
               x1="79.245697"
               y1="226.1393"
               x2="282.81741"
               y2="-4.8032999"><stop
                 offset="0"
                 style="stop-color:#00ADDC"
                 id="stop5488" /><stop
                 offset="1"
                 style="stop-color:#6BFBFF"
                 id="stop5490" /></linearGradient><path
               class="st8"
               d="m 171.7,197.3 -23.4,0 c -2.2,0 -4,-1.8 -4,-3.9 l 0,-12.4 c -2,-0.7 -4,-1.5 -6,-2.5 l -8.8,8.8 c -1.5,1.5 -4,1.5 -5.6,-0.1 l -16.6,-16.6 c -1.6,-1.6 -1.6,-4.1 -0.1,-5.6 l 8.7,-8.7 c -1,-2 -1.8,-4 -2.5,-6.1 l -12.3,0 c -2.2,0 -3.9,-1.8 -3.9,-4 l 0,-23.4 c 0,-2.2 1.8,-4 3.9,-4 l 12.3,0 c 0.9,-2.6 1.9,-5.1 3.2,-7.4 l 3.5,1.8 c -1.4,2.6 -2.5,5.3 -3.4,8.1 l -0.4,1.4 -15.2,0 0,23.5 15.2,0.1 0.4,1.4 c 0.9,2.8 2,5.5 3.4,8 l 0.7,1.3 -10.8,10.8 16.6,16.6 10.9,-10.8 1.3,0.7 c 2.6,1.4 5.2,2.5 8,3.3 l 1.4,0.4 0,15.4 23.5,0 0.1,-15.4 1.4,-0.4 c 2.7,-0.8 5.4,-1.9 7.9,-3.3 l 1.3,-0.7 10.9,10.9 16.6,-16.6 -10.8,-11 0.7,-1.3 c 1.4,-2.6 2.5,-5.2 3.3,-7.9 l 0.4,-1.4 15.4,0 0,-23.5 -15.3,-0.1 -0.4,-1.4 c -0.8,-2.8 -1.9,-5.5 -3.3,-8 L 199.2,112 210,101.2 193.4,84.6 182.6,95.3 181.3,94.6 c -2.6,-1.4 -5.3,-2.5 -8.1,-3.4 l -1.4,-0.4 0,-15.2 -23.5,0 -0.1,15.1 -1.4,0.4 c -2.8,0.9 -5.6,2 -8.1,3.4 l -1.3,0.7 -10.7,-10.7 -19.5,19.5 c -1.5,-1.5 -1.5,-4 0.1,-5.6 l 16.5,-16.5 c 0.8,-0.8 1.8,-1.3 2.9,-1.2 1,0 2,0.4 2.7,1.1 l 8.7,8.6 c 2,-1 4,-1.8 6.2,-2.5 l 0,-12.3 c 0,-2.2 1.8,-3.9 4,-3.9 l 23.4,0 c 2.2,0 4,1.8 4,3.9 l 0,12.3 c 2.1,0.7 4.1,1.6 6.1,2.5 l 8.7,-8.7 c 0.7,-0.7 1.7,-1.1 2.7,-1.1 l 0,0 c 1.1,0 2.1,0.4 2.9,1.2 l 16.6,16.6 c 0.8,0.8 1.2,1.8 1.2,2.9 0,1 -0.4,2 -1.1,2.7 l -8.8,8.8 c 1,2 1.8,4 2.5,6 l 12.4,0 c 2.2,0 3.9,1.8 3.9,4 l 0,23.4 c 0,2.2 -1.8,4 -3.9,4 l -12.5,0 c -0.7,2 -1.5,4 -2.5,6 l 8.9,8.9 c 1.5,1.5 1.5,4 -0.1,5.6 l -16.6,16.6 c -0.8,0.8 -1.8,1.2 -2.9,1.2 l 0,0 c -1,0 -2,-0.4 -2.7,-1.1 l -8.9,-8.9 c -1.9,1 -3.9,1.8 -5.9,2.5 l 0,12.5 c 0,2.1 -1.8,3.8 -4,3.8 z"
               id="path5492"
               style="fill:url(#SVGID_5_)"
               inkscape:connector-curvature="0" /></g></g></g></g></switch></svg>