<?xml version="1.0" encoding="UTF-8" standalone="no"?>
<!-- Generator: Adobe Illustrator 21.1.0, SVG Export Plug-In . SVG Version: 6.00 Build 0)  -->

<svg
   xmlns:dc="http://purl.org/dc/elements/1.1/"
   xmlns:cc="http://creativecommons.org/ns#"
   xmlns:rdf="http://www.w3.org/1999/02/22-rdf-syntax-ns#"
   xmlns:svg="http://www.w3.org/2000/svg"
   xmlns="http://www.w3.org/2000/svg"
   xmlns:sodipodi="http://sodipodi.sourceforge.net/DTD/sodipodi-0.dtd"
   xmlns:inkscape="http://www.inkscape.org/namespaces/inkscape"
   version="1.1"
   id="Settings_Active"
   x="0px"
   y="0px"
   viewBox="0 0 300 300"
   style="enable-background:new 0 0 300 300;"
   xml:space="preserve"
   inkscape:version="0.91 r13725"
   sodipodi:docname="webbrowser_inactive.svg"><metadata
     id="metadata56"><rdf:RDF><cc:Work
         rdf:about=""><dc:format>image/svg+xml</dc:format><dc:type
           rdf:resource="http://purl.org/dc/dcmitype/StillImage" /></cc:Work></rdf:RDF></metadata><defs
     id="defs54" /><sodipodi:namedview
     pagecolor="#ffffff"
     bordercolor="#666666"
     borderopacity="1"
     objecttolerance="10"
     gridtolerance="10"
     guidetolerance="10"
     inkscape:pageopacity="0"
     inkscape:pageshadow="2"
     inkscape:window-width="1345"
     inkscape:window-height="856"
     id="namedview52"
     showgrid="false"
     inkscape:zoom="0.78666667"
     inkscape:cx="-87.711864"
     inkscape:cy="150"
     inkscape:window-x="0"
     inkscape:window-y="27"
     inkscape:window-maximized="0"
     inkscape:current-layer="Settings_Active" /><style
     type="text/css"
     id="style3">
	.st0{fill:url(#SVGID_1_);}
	.st1{fill:url(#SVGID_2_);}
	.st2{fill:url(#SVGID_3_);}
	.st3{fill:url(#SVGID_4_);}
	.st4{fill:url(#SVGID_5_);}
	.st5{fill:url(#SVGID_6_);}
</style><g
     id="g5"
     transform="matrix(1.3307804,0,0,1.3314313,1.3518321,1.3456942)"><linearGradient
       id="SVGID_1_"
       gradientUnits="userSpaceOnUse"
       x1="-43.8396"
       y1="-45.145401"
       x2="272.5983"
       y2="258.20679"
       gradientTransform="matrix(1,0.00546456,0.00546456,-1,-3.8006,218.0353)"><stop
         offset="0"
         style="stop-color:#00ADDC"
         id="stop8" /><stop
         offset="1"
         style="stop-color:#6BFBFF"
         id="stop10" /></linearGradient><path
       class="st0"
       d="m 111.7,216.8 c -0.2,0 -0.4,0 -0.6,0 C 53.1,216.5 6.2,169.1 6.5,111.1 6.9,53.3 54,6.5 111.7,6.5 c 0.2,0 0.4,0 0.6,0 58,0.3 104.9,47.7 104.6,105.7 l 0,0 C 216.5,170 169.4,216.8 111.7,216.8 Z m 0,-206.6 C 56,10.2 10.5,55.4 10.2,111.1 c -0.3,55.9 45,101.7 100.9,102 0.2,0 0.4,0 0.6,0 55.7,0 101.2,-45.2 101.5,-100.9 0.3,-55.9 -45,-101.7 -100.9,-102 -0.2,0 -0.4,0 -0.6,0 z"
       id="path12"
       style="fill:url(#SVGID_1_)"
       inkscape:connector-curvature="0" /></g><g
     id="_x38_ymwRc.tif"
     transform="matrix(1.3307804,0,0,1.3314313,1.3518321,1.3456942)"><g
       id="g15"><linearGradient
         id="SVGID_2_"
         gradientUnits="userSpaceOnUse"
         x1="47.166698"
         y1="108.6"
         x2="175.26669"
         y2="108.6"
         gradientTransform="matrix(1,0,0,-1,0,220)"><stop
           offset="0"
           style="stop-color:#00ADDC"
           id="stop18" /><stop
           offset="1"
           style="stop-color:#6BFBFF"
           id="stop20" /></linearGradient><path
         class="st1"
         d="m 123.2,159.5 c -22.9,0 -45.7,0 -68.6,0 -3.9,0 -5.8,-2.3 -7.4,-5.3 0,-28.5 0,-57.1 0,-85.6 1.8,-4.1 4.9,-5.4 9.4,-5.4 36.6,0.1 73.2,0.1 109.7,0.1 6.7,0 9,2.3 9,9 0,26.1 0,52.3 0,78.4 0,6.5 -2.3,8.7 -8.9,8.8 -3,0 -11,0.1 -11,0.1 0,0 -2.3,-2 -3.9,-3.6 5.3,0 10,0 14.7,0 4.7,0 5.5,-0.8 5.5,-5.5 0,-22 0,-44 0.1,-66 0,-2.7 -0.8,-3.4 -3.5,-3.4 -38,0.1 -76,0.1 -114,0 -2.8,0 -3.4,0.9 -3.4,3.5 0.1,22.1 0.1,44.2 0.1,66.3 0,4.3 0.8,5.1 5.2,5.1 21.4,0 42.9,0 64.3,0 1,0 2,-0.1 2.9,0.1 M 111.2,77.7 c 18,0 35.9,0 53.9,0 6.6,0 6.5,0 6.4,-6.6 0,-2.9 -1.3,-4.2 -4.1,-4.2 -0.9,0 -1.7,0 -2.6,0 -35.7,0 -71.4,0 -107.1,0 -6.4,0 -6.7,0.3 -6.7,6.5 0,4.3 0,4.3 4.1,4.3 18.6,0 37.4,0 56.1,0 z"
         id="path22"
         style="fill:url(#SVGID_2_)"
         inkscape:connector-curvature="0" /><linearGradient
         id="SVGID_3_"
         gradientUnits="userSpaceOnUse"
         x1="86.366699"
         y1="147.7428"
         x2="135.8667"
         y2="147.7428"
         gradientTransform="matrix(1,0,0,-1,0,220)"><stop
           offset="0"
           style="stop-color:#00ADDC"
           id="stop25" /><stop
           offset="1"
           style="stop-color:#6BFBFF"
           id="stop27" /></linearGradient><path
         class="st2"
         d="m 111.5,70.5 c 7.1,0 14.2,0 21.2,0 1.4,0 3.2,-0.3 3.2,1.7 0,2 -1.8,1.8 -3.2,1.8 -14.4,0 -28.7,0 -43.1,0 -1.3,0 -3.2,0.4 -3.2,-1.7 0,-2.1 1.8,-1.8 3.2,-1.8 7.3,0 14.6,0 21.9,0 z"
         id="path29"
         style="fill:url(#SVGID_3_)"
         inkscape:connector-curvature="0" /><linearGradient
         id="SVGID_4_"
         gradientUnits="userSpaceOnUse"
         x1="60.2943"
         y1="147.79939"
         x2="63.808201"
         y2="147.79939"
         gradientTransform="matrix(1,0,0,-1,0,220)"><stop
           offset="0"
           style="stop-color:#00ADDC"
           id="stop32" /><stop
           offset="1"
           style="stop-color:#6BFBFF"
           id="stop34" /></linearGradient><path
         class="st3"
         d="m 63.8,72.2 c -0.1,0.9 -0.5,1.7 -1.6,1.7 -1.2,0.1 -1.9,-0.5 -1.9,-1.7 0,-1 0.6,-1.6 1.6,-1.7 1.2,-0.1 1.7,0.6 1.9,1.7 z"
         id="path36"
         style="fill:url(#SVGID_4_)"
         inkscape:connector-curvature="0" /><linearGradient
         id="SVGID_5_"
         gradientUnits="userSpaceOnUse"
         x1="66.4795"
         y1="147.7"
         x2="69.944099"
         y2="147.7"
         gradientTransform="matrix(1,0,0,-1,0,220)"><stop
           offset="0"
           style="stop-color:#00ADDC"
           id="stop39" /><stop
           offset="1"
           style="stop-color:#6BFBFF"
           id="stop41" /></linearGradient><path
         class="st4"
         d="m 68.6,74 c -1.3,0 -2,-0.5 -2.1,-1.5 -0.1,-1.1 0.4,-1.9 1.6,-1.9 1,0 1.7,0.5 1.8,1.5 0.2,1.1 -0.5,1.7 -1.3,1.9 z"
         id="path43"
         style="fill:url(#SVGID_5_)"
         inkscape:connector-curvature="0" /><linearGradient
         id="SVGID_6_"
         gradientUnits="userSpaceOnUse"
         x1="54.3325"
         y1="147.7989"
         x2="57.717999"
         y2="147.7989"
         gradientTransform="matrix(1,0,0,-1,0,220)"><stop
           offset="0"
           style="stop-color:#00ADDC"
           id="stop46" /><stop
           offset="1"
           style="stop-color:#6BFBFF"
           id="stop48" /></linearGradient><path
         class="st5"
         d="m 57.7,72.5 c -0.2,1.1 -0.9,1.5 -1.8,1.4 -1.2,-0.1 -1.7,-0.8 -1.5,-2 0.2,-1 0.8,-1.5 1.8,-1.4 1.2,0.2 1.6,1 1.5,2 z"
         id="path50"
         style="fill:url(#SVGID_6_)"
         inkscape:connector-curvature="0" /></g></g></svg>